<svg width="124" height="29" viewBox="0 0 124 29" fill="none" xmlns="http://www.w3.org/2000/svg">
<path d="M0.515625 15.6065L14.5156 21.7713V17.7443L5.05966 13.946V13.767L14.5156 9.96875V5.94176L0.515625 12.1065V15.6065ZM106.56 0.681817H102.911L96.348 25.0625H99.9972L106.56 0.681817ZM123.426 15.6065V12.1065L109.426 5.94176V9.96875L118.882 13.767V13.946L109.426 17.7443V21.7713L123.426 15.6065Z" fill="#FF57B2"/>
<path d="M18.8011 22H27.5014C32.0753 22 34.5114 19.6136 34.5114 16.3722C34.5114 13.3594 32.3537 11.5398 30.0369 11.4304V11.2315C32.1548 10.7543 33.7159 9.25284 33.7159 6.85653C33.7159 3.80398 31.4489 1.63636 26.9545 1.63636H18.8011V22ZM23.1065 18.4801V13.071H26.7159C28.7841 13.071 30.0668 14.2642 30.0668 15.9446C30.0668 17.4759 29.0227 18.4801 26.6165 18.4801H23.1065ZM23.1065 10.1577V5.11648H26.3778C28.2869 5.11648 29.3707 6.10085 29.3707 7.57244C29.3707 9.18324 28.0582 10.1577 26.2983 10.1577H23.1065ZM41.4691 1.63636H37.2333V22H41.4691V1.63636ZM51.7628 22.2983C56.3963 22.2983 59.2798 19.1264 59.2798 14.4233C59.2798 9.69034 56.3963 6.52841 51.7628 6.52841C47.1293 6.52841 44.2457 9.69034 44.2457 14.4233C44.2457 19.1264 47.1293 22.2983 51.7628 22.2983ZM51.7827 19.017C49.6449 19.017 48.5511 17.0582 48.5511 14.3935C48.5511 11.7287 49.6449 9.75994 51.7827 9.75994C53.8807 9.75994 54.9744 11.7287 54.9744 14.3935C54.9744 17.0582 53.8807 19.017 51.7827 19.017ZM68.9148 28.0455C73.2798 28.0455 76.3821 26.0568 76.3821 22.1491V6.72727H72.1761V9.29261H72.017C71.4503 8.04972 70.2074 6.52841 67.652 6.52841C64.3011 6.52841 61.4673 9.13352 61.4673 14.3338C61.4673 19.4148 64.2216 21.7812 67.6619 21.7812C70.098 21.7812 71.4602 20.5582 72.017 19.2955H72.196V22.0895C72.196 24.1875 70.8537 25.0028 69.0142 25.0028C67.1449 25.0028 66.2003 24.1875 65.8523 23.2628L61.9347 23.7898C62.4418 26.196 64.7983 28.0455 68.9148 28.0455ZM69.0043 18.5994C66.9261 18.5994 65.7926 16.9489 65.7926 14.3139C65.7926 11.7188 66.9062 9.89915 69.0043 9.89915C71.0625 9.89915 72.2159 11.6392 72.2159 14.3139C72.2159 17.0085 71.0426 18.5994 69.0043 18.5994ZM79.7528 22H83.9886V13.3594C83.9886 11.4801 85.3608 10.1875 87.2301 10.1875C87.8168 10.1875 88.6222 10.2869 89.0199 10.4162V6.65767C88.642 6.56818 88.1151 6.50852 87.6875 6.50852C85.9773 6.50852 84.5753 7.50284 84.0185 9.39205H83.8594V6.72727H79.7528V22Z" fill="#F1F1F1"/>
</svg>
